<?xml version="1.0" encoding="UTF-8" standalone="no"?>
<!DOCTYPE svg PUBLIC "-//W3C//DTD SVG 1.1//EN"
 "http://www.w3.org/Graphics/SVG/1.1/DTD/svg11.dtd">
<!-- Generated by graphviz version 2.50.0 (20220708.1628)
 -->
<!-- Pages: 1 -->
<svg width="1180pt" height="704pt"
 viewBox="0.00 0.00 1179.50 704.00" xmlns="http://www.w3.org/2000/svg" xmlns:xlink="http://www.w3.org/1999/xlink">
<g id="graph0" class="graph" transform="scale(1 1) rotate(0) translate(4 700)">
<polygon fill="white" stroke="transparent" points="-4,4 -4,-700 1175.5,-700 1175.5,4 -4,4"/>
<!-- 1 -->
<g id="node1" class="node">
<title>1</title>
<g id="a_node1"><a xlink:title="/mnt/c/Users/Michele/Desktop/Phd/pyntacle/main.py">
<polygon fill="#ff0000" stroke="#ff0000" points="689.5,-696 609.5,-696 609.5,-644 689.5,-644 689.5,-696"/>
<text text-anchor="middle" x="649.5" y="-684" font-family="Arial" font-size="10.00" fill="#ffffff">main:308:main</text>
<text text-anchor="middle" x="649.5" y="-673" font-family="Arial" font-size="10.00" fill="#ffffff">100.00%</text>
<text text-anchor="middle" x="649.5" y="-662" font-family="Arial" font-size="10.00" fill="#ffffff">(0.02%)</text>
<text text-anchor="middle" x="649.5" y="-651" font-family="Arial" font-size="10.00" fill="#ffffff">1×</text>
</a>
</g>
</g>
<!-- 29 -->
<g id="node2" class="node">
<title>29</title>
<g id="a_node2"><a xlink:title="/mnt/c/Users/Michele/Desktop/Phd/pyntacle/generate.py">
<polygon fill="#90ce07" stroke="#90ce07" points="572.5,-604 428.5,-604 428.5,-552 572.5,-552 572.5,-604"/>
<text text-anchor="middle" x="500.5" y="-592" font-family="Arial" font-size="10.00" fill="#ffffff">generate:177:output_decision</text>
<text text-anchor="middle" x="500.5" y="-581" font-family="Arial" font-size="10.00" fill="#ffffff">67.20%</text>
<text text-anchor="middle" x="500.5" y="-570" font-family="Arial" font-size="10.00" fill="#ffffff">(0.00%)</text>
<text text-anchor="middle" x="500.5" y="-559" font-family="Arial" font-size="10.00" fill="#ffffff">1×</text>
</a>
</g>
</g>
<!-- 1&#45;&gt;29 -->
<g id="edge1" class="edge">
<title>1&#45;&gt;29</title>
<path fill="none" stroke="#90ce07" stroke-width="2.69" d="M609.18,-644.64C590.6,-633.42 568.41,-620.02 548.93,-608.25"/>
<polygon fill="#90ce07" stroke="#90ce07" stroke-width="2.69" points="550.39,-605.78 541.89,-604 547.43,-610.7 550.39,-605.78"/>
<text text-anchor="middle" x="610.5" y="-627" font-family="Arial" font-size="10.00" fill="#90ce07">67.20%</text>
<text text-anchor="middle" x="610.5" y="-616" font-family="Arial" font-size="10.00" fill="#90ce07">1×</text>
</g>
<!-- 32 -->
<g id="node3" class="node">
<title>32</title>
<g id="a_node3"><a xlink:title="/mnt/c/Users/Michele/Desktop/Phd/pyntacle/generate.py">
<polygon fill="#0d377f" stroke="#0d377f" points="712.5,-604 586.5,-604 586.5,-552 712.5,-552 712.5,-604"/>
<text text-anchor="middle" x="649.5" y="-592" font-family="Arial" font-size="10.00" fill="#ffffff">generate:202:erdos_renyi</text>
<text text-anchor="middle" x="649.5" y="-581" font-family="Arial" font-size="10.00" fill="#ffffff">9.27%</text>
<text text-anchor="middle" x="649.5" y="-570" font-family="Arial" font-size="10.00" fill="#ffffff">(0.00%)</text>
<text text-anchor="middle" x="649.5" y="-559" font-family="Arial" font-size="10.00" fill="#ffffff">1×</text>
</a>
</g>
</g>
<!-- 1&#45;&gt;32 -->
<g id="edge2" class="edge">
<title>1&#45;&gt;32</title>
<path fill="none" stroke="#0d377f" stroke-width="0.5" d="M649.5,-643.93C649.5,-632.71 649.5,-619.42 649.5,-607.8"/>
<polygon fill="#0d377f" stroke="#0d377f" stroke-width="0.5" points="650.73,-607.75 649.5,-604.25 648.28,-607.75 650.73,-607.75"/>
<text text-anchor="middle" x="663.5" y="-627" font-family="Arial" font-size="10.00" fill="#0d377f">9.27%</text>
<text text-anchor="middle" x="663.5" y="-616" font-family="Arial" font-size="10.00" fill="#0d377f">1×</text>
</g>
<!-- 35 -->
<g id="node4" class="node">
<title>35</title>
<g id="a_node4"><a xlink:title="/mnt/c/Users/Michele/Desktop/Phd/pyntacle/GraphTacle.py">
<polygon fill="#0c8791" stroke="#0c8791" points="846,-604 755,-604 755,-552 846,-552 846,-604"/>
<text text-anchor="middle" x="800.5" y="-592" font-family="Arial" font-size="10.00" fill="#ffffff">GraphTacle:43:re</text>
<text text-anchor="middle" x="800.5" y="-581" font-family="Arial" font-size="10.00" fill="#ffffff">23.13%</text>
<text text-anchor="middle" x="800.5" y="-570" font-family="Arial" font-size="10.00" fill="#ffffff">(0.01%)</text>
<text text-anchor="middle" x="800.5" y="-559" font-family="Arial" font-size="10.00" fill="#ffffff">1×</text>
</a>
</g>
</g>
<!-- 1&#45;&gt;35 -->
<g id="edge3" class="edge">
<title>1&#45;&gt;35</title>
<path fill="none" stroke="#0c8791" stroke-width="0.93" d="M689.57,-645.12C709.39,-633.3 733.43,-618.98 754.05,-606.69"/>
<polygon fill="#0c8791" stroke="#0c8791" stroke-width="0.93" points="755.13,-608 758.39,-604.1 753.41,-605.11 755.13,-608"/>
<text text-anchor="middle" x="760.5" y="-627" font-family="Arial" font-size="10.00" fill="#0c8791">23.13%</text>
<text text-anchor="middle" x="760.5" y="-616" font-family="Arial" font-size="10.00" fill="#0c8791">1×</text>
</g>
<!-- 15 -->
<g id="node14" class="node">
<title>15</title>
<g id="a_node14"><a xlink:title="/mnt/c/Users/Michele/Desktop/Phd/pyntacle/generate.py">
<polygon fill="#90ce07" stroke="#90ce07" points="555.5,-512 417.5,-512 417.5,-460 555.5,-460 555.5,-512"/>
<text text-anchor="middle" x="486.5" y="-500" font-family="Arial" font-size="10.00" fill="#ffffff">generate:75:grafo_to_matrix</text>
<text text-anchor="middle" x="486.5" y="-489" font-family="Arial" font-size="10.00" fill="#ffffff">67.20%</text>
<text text-anchor="middle" x="486.5" y="-478" font-family="Arial" font-size="10.00" fill="#ffffff">(1.97%)</text>
<text text-anchor="middle" x="486.5" y="-467" font-family="Arial" font-size="10.00" fill="#ffffff">1×</text>
</a>
</g>
</g>
<!-- 29&#45;&gt;15 -->
<g id="edge11" class="edge">
<title>29&#45;&gt;15</title>
<path fill="none" stroke="#90ce07" stroke-width="2.69" d="M496.6,-551.93C495.08,-542.16 493.32,-530.82 491.69,-520.38"/>
<polygon fill="#90ce07" stroke="#90ce07" stroke-width="2.69" points="494.52,-519.91 490.43,-512.25 488.85,-520.79 494.52,-519.91"/>
<text text-anchor="middle" x="512.5" y="-535" font-family="Arial" font-size="10.00" fill="#90ce07">67.20%</text>
<text text-anchor="middle" x="512.5" y="-524" font-family="Arial" font-size="10.00" fill="#90ce07">1×</text>
</g>
<!-- 42 -->
<g id="node15" class="node">
<title>42</title>
<g id="a_node15"><a xlink:title="~">
<polygon fill="#0d377f" stroke="#0d377f" points="734,-512 565,-512 565,-460 734,-460 734,-512"/>
<text text-anchor="middle" x="649.5" y="-500" font-family="Arial" font-size="10.00" fill="#ffffff">~:0:&lt;built&#45;in method Erdos_Renyi&gt;</text>
<text text-anchor="middle" x="649.5" y="-489" font-family="Arial" font-size="10.00" fill="#ffffff">9.20%</text>
<text text-anchor="middle" x="649.5" y="-478" font-family="Arial" font-size="10.00" fill="#ffffff">(9.19%)</text>
<text text-anchor="middle" x="649.5" y="-467" font-family="Arial" font-size="10.00" fill="#ffffff">1×</text>
</a>
</g>
</g>
<!-- 32&#45;&gt;42 -->
<g id="edge12" class="edge">
<title>32&#45;&gt;42</title>
<path fill="none" stroke="#0d377f" stroke-width="0.5" d="M649.5,-551.93C649.5,-540.71 649.5,-527.42 649.5,-515.8"/>
<polygon fill="#0d377f" stroke="#0d377f" stroke-width="0.5" points="650.73,-515.75 649.5,-512.25 648.28,-515.75 650.73,-515.75"/>
<text text-anchor="middle" x="663.5" y="-535" font-family="Arial" font-size="10.00" fill="#0d377f">9.20%</text>
<text text-anchor="middle" x="663.5" y="-524" font-family="Arial" font-size="10.00" fill="#0d377f">1×</text>
</g>
<!-- 34 -->
<g id="node16" class="node">
<title>34</title>
<g id="a_node16"><a xlink:title="/mnt/c/Users/Michele/Desktop/Phd/pyntacle/GraphTacle.py">
<polygon fill="#0d1e78" stroke="#0d1e78" points="858.5,-512 742.5,-512 742.5,-460 858.5,-460 858.5,-512"/>
<text text-anchor="middle" x="800.5" y="-500" font-family="Arial" font-size="10.00" fill="#ffffff">GraphTacle:25:__init__</text>
<text text-anchor="middle" x="800.5" y="-489" font-family="Arial" font-size="10.00" fill="#ffffff">4.13%</text>
<text text-anchor="middle" x="800.5" y="-478" font-family="Arial" font-size="10.00" fill="#ffffff">(0.01%)</text>
<text text-anchor="middle" x="800.5" y="-467" font-family="Arial" font-size="10.00" fill="#ffffff">1×</text>
</a>
</g>
</g>
<!-- 35&#45;&gt;34 -->
<g id="edge14" class="edge">
<title>35&#45;&gt;34</title>
<path fill="none" stroke="#0d1e78" stroke-width="0.5" d="M800.5,-551.93C800.5,-540.71 800.5,-527.42 800.5,-515.8"/>
<polygon fill="#0d1e78" stroke="#0d1e78" stroke-width="0.5" points="801.73,-515.75 800.5,-512.25 799.28,-515.75 801.73,-515.75"/>
<text text-anchor="middle" x="814.5" y="-535" font-family="Arial" font-size="10.00" fill="#0d1e78">4.13%</text>
<text text-anchor="middle" x="814.5" y="-524" font-family="Arial" font-size="10.00" fill="#0d1e78">1×</text>
</g>
<!-- 45 -->
<g id="node17" class="node">
<title>45</title>
<g id="a_node17"><a xlink:title="~">
<polygon fill="#0c6d8b" stroke="#0c6d8b" points="1171.5,-512 867.5,-512 867.5,-460 1171.5,-460 1171.5,-512"/>
<text text-anchor="middle" x="1019.5" y="-500" font-family="Arial" font-size="10.00" fill="#ffffff">~:0:&lt;method &#39;get_edgelist&#39; of &#39;igraph._igraph.GraphBase&#39; objects&gt;</text>
<text text-anchor="middle" x="1019.5" y="-489" font-family="Arial" font-size="10.00" fill="#ffffff">18.94%</text>
<text text-anchor="middle" x="1019.5" y="-478" font-family="Arial" font-size="10.00" fill="#ffffff">(18.94%)</text>
<text text-anchor="middle" x="1019.5" y="-467" font-family="Arial" font-size="10.00" fill="#ffffff">1×</text>
</a>
</g>
</g>
<!-- 35&#45;&gt;45 -->
<g id="edge15" class="edge">
<title>35&#45;&gt;45</title>
<path fill="none" stroke="#0c6d8b" stroke-width="0.76" d="M846.14,-558.24C877.46,-545.37 919.5,-528.1 954.33,-513.78"/>
<polygon fill="#0c6d8b" stroke="#0c6d8b" stroke-width="0.76" points="955.06,-515.15 958.54,-512.05 953.88,-512.3 955.06,-515.15"/>
<text text-anchor="middle" x="952.5" y="-535" font-family="Arial" font-size="10.00" fill="#0c6d8b">18.94%</text>
<text text-anchor="middle" x="952.5" y="-524" font-family="Arial" font-size="10.00" fill="#0c6d8b">1×</text>
</g>
<!-- 5 -->
<g id="node5" class="node">
<title>5</title>
<g id="a_node5"><a xlink:title="/home/valeria/miniconda3/envs/pyntacle_env/lib/python3.10/site&#45;packages/igraph/__init__.py">
<polygon fill="#0d1e78" stroke="#0d1e78" points="853.5,-420 747.5,-420 747.5,-368 853.5,-368 853.5,-420"/>
<text text-anchor="middle" x="800.5" y="-408" font-family="Arial" font-size="10.00" fill="#ffffff">__init__:237:__init__</text>
<text text-anchor="middle" x="800.5" y="-397" font-family="Arial" font-size="10.00" fill="#ffffff">4.08%</text>
<text text-anchor="middle" x="800.5" y="-386" font-family="Arial" font-size="10.00" fill="#ffffff">(4.07%)</text>
<text text-anchor="middle" x="800.5" y="-375" font-family="Arial" font-size="10.00" fill="#ffffff">2×</text>
</a>
</g>
</g>
<!-- 6 -->
<g id="node6" class="node">
<title>6</title>
<g id="a_node6"><a xlink:title="/home/valeria/miniconda3/envs/pyntacle_env/lib/python3.10/site&#45;packages/igraph/__init__.py">
<polygon fill="#7fcb07" stroke="#7fcb07" points="560.5,-420 412.5,-420 412.5,-368 560.5,-368 560.5,-420"/>
<text text-anchor="middle" x="486.5" y="-408" font-family="Arial" font-size="10.00" fill="#ffffff">__init__:2052:write_adjacency</text>
<text text-anchor="middle" x="486.5" y="-397" font-family="Arial" font-size="10.00" fill="#ffffff">65.22%</text>
<text text-anchor="middle" x="486.5" y="-386" font-family="Arial" font-size="10.00" fill="#ffffff">(1.17%)</text>
<text text-anchor="middle" x="486.5" y="-375" font-family="Arial" font-size="10.00" fill="#ffffff">1×</text>
</a>
</g>
</g>
<!-- 16 -->
<g id="node7" class="node">
<title>16</title>
<g id="a_node7"><a xlink:title="~">
<polygon fill="#0c658a" stroke="#0c658a" points="241,-328 0,-328 0,-276 241,-276 241,-328"/>
<text text-anchor="middle" x="120.5" y="-316" font-family="Arial" font-size="10.00" fill="#ffffff">~:0:&lt;method &#39;write&#39; of &#39;_io.TextIOWrapper&#39; objects&gt;</text>
<text text-anchor="middle" x="120.5" y="-305" font-family="Arial" font-size="10.00" fill="#ffffff">17.62%</text>
<text text-anchor="middle" x="120.5" y="-294" font-family="Arial" font-size="10.00" fill="#ffffff">(17.62%)</text>
<text text-anchor="middle" x="120.5" y="-283" font-family="Arial" font-size="10.00" fill="#ffffff">2000×</text>
</a>
</g>
</g>
<!-- 6&#45;&gt;16 -->
<g id="edge4" class="edge">
<title>6&#45;&gt;16</title>
<path fill="none" stroke="#0c658a" stroke-width="0.7" d="M412.43,-374.79C358.99,-361.65 286.06,-343.71 226.46,-329.06"/>
<polygon fill="#0c658a" stroke="#0c658a" stroke-width="0.7" points="226.62,-327.58 222.19,-328.01 225.92,-330.44 226.62,-327.58"/>
<text text-anchor="middle" x="364.5" y="-351" font-family="Arial" font-size="10.00" fill="#0c658a">17.62%</text>
<text text-anchor="middle" x="364.5" y="-340" font-family="Arial" font-size="10.00" fill="#0c658a">2000×</text>
</g>
<!-- 18 -->
<g id="node8" class="node">
<title>18</title>
<g id="a_node8"><a xlink:title="~">
<polygon fill="#0d1676" stroke="#0d1676" points="394.5,-328 250.5,-328 250.5,-276 394.5,-276 394.5,-328"/>
<text text-anchor="middle" x="322.5" y="-316" font-family="Arial" font-size="10.00" fill="#ffffff">~:0:&lt;built&#45;in method io.open&gt;</text>
<text text-anchor="middle" x="322.5" y="-305" font-family="Arial" font-size="10.00" fill="#ffffff">2.28%</text>
<text text-anchor="middle" x="322.5" y="-294" font-family="Arial" font-size="10.00" fill="#ffffff">(2.28%)</text>
<text text-anchor="middle" x="322.5" y="-283" font-family="Arial" font-size="10.00" fill="#ffffff">1×</text>
</a>
</g>
</g>
<!-- 6&#45;&gt;18 -->
<g id="edge5" class="edge">
<title>6&#45;&gt;18</title>
<path fill="none" stroke="#0d1676" stroke-width="0.5" d="M440.82,-367.93C419.23,-356.08 393.43,-341.92 371.44,-329.86"/>
<polygon fill="#0d1676" stroke="#0d1676" stroke-width="0.5" points="371.88,-328.7 368.22,-328.09 370.7,-330.85 371.88,-328.7"/>
<text text-anchor="middle" x="438.5" y="-351" font-family="Arial" font-size="10.00" fill="#0d1676">2.28%</text>
<text text-anchor="middle" x="438.5" y="-340" font-family="Arial" font-size="10.00" fill="#0d1676">1×</text>
</g>
<!-- 21 -->
<g id="node9" class="node">
<title>21</title>
<g id="a_node9"><a xlink:title="~">
<polygon fill="#0c9983" stroke="#0c9983" points="569,-328 404,-328 404,-276 569,-276 569,-328"/>
<text text-anchor="middle" x="486.5" y="-316" font-family="Arial" font-size="10.00" fill="#ffffff">~:0:&lt;method &#39;join&#39; of &#39;str&#39; objects&gt;</text>
<text text-anchor="middle" x="486.5" y="-305" font-family="Arial" font-size="10.00" fill="#ffffff">28.81%</text>
<text text-anchor="middle" x="486.5" y="-294" font-family="Arial" font-size="10.00" fill="#ffffff">(28.81%)</text>
<text text-anchor="middle" x="486.5" y="-283" font-family="Arial" font-size="10.00" fill="#ffffff">1000×</text>
</a>
</g>
</g>
<!-- 6&#45;&gt;21 -->
<g id="edge6" class="edge">
<title>6&#45;&gt;21</title>
<path fill="none" stroke="#0c9983" stroke-width="1.15" d="M486.5,-367.93C486.5,-357.39 486.5,-345.02 486.5,-333.92"/>
<polygon fill="#0c9983" stroke="#0c9983" stroke-width="1.15" points="488.39,-333.65 486.5,-328.25 484.61,-333.65 488.39,-333.65"/>
<text text-anchor="middle" x="503.5" y="-351" font-family="Arial" font-size="10.00" fill="#0c9983">28.81%</text>
<text text-anchor="middle" x="503.5" y="-340" font-family="Arial" font-size="10.00" fill="#0c9983">1000×</text>
</g>
<!-- 39 -->
<g id="node10" class="node">
<title>39</title>
<g id="a_node10"><a xlink:title="/home/valeria/miniconda3/envs/pyntacle_env/lib/python3.10/site&#45;packages/igraph/datatypes.py">
<polygon fill="#0d1074" stroke="#0d1074" points="706.5,-328 578.5,-328 578.5,-276 706.5,-276 706.5,-328"/>
<text text-anchor="middle" x="642.5" y="-316" font-family="Arial" font-size="10.00" fill="#ffffff">datatypes:272:&lt;genexpr&gt;</text>
<text text-anchor="middle" x="642.5" y="-305" font-family="Arial" font-size="10.00" fill="#ffffff">0.90%</text>
<text text-anchor="middle" x="642.5" y="-294" font-family="Arial" font-size="10.00" fill="#ffffff">(0.90%)</text>
<text text-anchor="middle" x="642.5" y="-283" font-family="Arial" font-size="10.00" fill="#ffffff">1001×</text>
</a>
</g>
</g>
<!-- 6&#45;&gt;39 -->
<g id="edge7" class="edge">
<title>6&#45;&gt;39</title>
<path fill="none" stroke="#0d1074" stroke-width="0.5" d="M529.95,-367.93C550.49,-356.08 575.03,-341.92 595.95,-329.86"/>
<polygon fill="#0d1074" stroke="#0d1074" stroke-width="0.5" points="596.59,-330.9 599.01,-328.09 595.36,-328.78 596.59,-330.9"/>
<text text-anchor="middle" x="597.5" y="-351" font-family="Arial" font-size="10.00" fill="#0d1074">0.90%</text>
<text text-anchor="middle" x="597.5" y="-340" font-family="Arial" font-size="10.00" fill="#0d1074">1001×</text>
</g>
<!-- 44 -->
<g id="node11" class="node">
<title>44</title>
<g id="a_node11"><a xlink:title="/home/valeria/miniconda3/envs/pyntacle_env/lib/python3.10/site&#45;packages/igraph/__init__.py">
<polygon fill="#0c5185" stroke="#0c5185" points="851,-328 716,-328 716,-276 851,-276 851,-328"/>
<text text-anchor="middle" x="783.5" y="-316" font-family="Arial" font-size="10.00" fill="#ffffff">__init__:653:get_adjacency</text>
<text text-anchor="middle" x="783.5" y="-305" font-family="Arial" font-size="10.00" fill="#ffffff">14.20%</text>
<text text-anchor="middle" x="783.5" y="-294" font-family="Arial" font-size="10.00" fill="#ffffff">(0.90%)</text>
<text text-anchor="middle" x="783.5" y="-283" font-family="Arial" font-size="10.00" fill="#ffffff">1×</text>
</a>
</g>
</g>
<!-- 6&#45;&gt;44 -->
<g id="edge8" class="edge">
<title>6&#45;&gt;44</title>
<path fill="none" stroke="#0c5185" stroke-width="0.57" d="M560.54,-373.82C577.95,-369.13 596.42,-364.01 613.5,-359 656.93,-346.26 667.53,-342.22 710.5,-328 711.06,-327.82 711.62,-327.63 712.18,-327.44"/>
<polygon fill="#0c5185" stroke="#0c5185" stroke-width="0.57" points="712.72,-328.67 715.9,-326.2 711.88,-326.14 712.72,-328.67"/>
<text text-anchor="middle" x="699.5" y="-351" font-family="Arial" font-size="10.00" fill="#0c5185">14.20%</text>
<text text-anchor="middle" x="699.5" y="-340" font-family="Arial" font-size="10.00" fill="#0c5185">1×</text>
</g>
<!-- 38 -->
<g id="node18" class="node">
<title>38</title>
<g id="a_node18"><a xlink:title="/home/valeria/miniconda3/envs/pyntacle_env/lib/python3.10/site&#45;packages/igraph/datatypes.py">
<polygon fill="#0d1a77" stroke="#0d1a77" points="703.5,-236 593.5,-236 593.5,-184 703.5,-184 703.5,-236"/>
<text text-anchor="middle" x="648.5" y="-224" font-family="Arial" font-size="10.00" fill="#ffffff">datatypes:19:__init__</text>
<text text-anchor="middle" x="648.5" y="-213" font-family="Arial" font-size="10.00" fill="#ffffff">3.06%</text>
<text text-anchor="middle" x="648.5" y="-202" font-family="Arial" font-size="10.00" fill="#ffffff">(0.00%)</text>
<text text-anchor="middle" x="648.5" y="-191" font-family="Arial" font-size="10.00" fill="#ffffff">1×</text>
</a>
</g>
</g>
<!-- 44&#45;&gt;38 -->
<g id="edge17" class="edge">
<title>44&#45;&gt;38</title>
<path fill="none" stroke="#0d1a77" stroke-width="0.5" d="M745.89,-275.93C728.34,-264.23 707.41,-250.27 689.46,-238.3"/>
<polygon fill="#0d1a77" stroke="#0d1a77" stroke-width="0.5" points="689.96,-237.17 686.37,-236.25 688.6,-239.21 689.96,-237.17"/>
<text text-anchor="middle" x="746.5" y="-259" font-family="Arial" font-size="10.00" fill="#0d1a77">3.06%</text>
<text text-anchor="middle" x="746.5" y="-248" font-family="Arial" font-size="10.00" fill="#0d1a77">1×</text>
</g>
<!-- 43 -->
<g id="node19" class="node">
<title>43</title>
<g id="a_node19"><a xlink:title="~">
<polygon fill="#0d3c80" stroke="#0d3c80" points="972,-236 713,-236 713,-184 972,-184 972,-236"/>
<text text-anchor="middle" x="842.5" y="-224" font-family="Arial" font-size="10.00" fill="#ffffff">~:0:&lt;function Graph.get_adjacency at 0x7fc62af17640&gt;</text>
<text text-anchor="middle" x="842.5" y="-213" font-family="Arial" font-size="10.00" fill="#ffffff">10.24%</text>
<text text-anchor="middle" x="842.5" y="-202" font-family="Arial" font-size="10.00" fill="#ffffff">(10.24%)</text>
<text text-anchor="middle" x="842.5" y="-191" font-family="Arial" font-size="10.00" fill="#ffffff">1×</text>
</a>
</g>
</g>
<!-- 44&#45;&gt;43 -->
<g id="edge18" class="edge">
<title>44&#45;&gt;43</title>
<path fill="none" stroke="#0d3c80" stroke-width="0.5" d="M799.93,-275.93C807.42,-264.52 816.3,-250.96 824.01,-239.2"/>
<polygon fill="#0d3c80" stroke="#0d3c80" stroke-width="0.5" points="825.05,-239.85 825.95,-236.25 823.01,-238.5 825.05,-239.85"/>
<text text-anchor="middle" x="837.5" y="-259" font-family="Arial" font-size="10.00" fill="#0d3c80">10.24%</text>
<text text-anchor="middle" x="837.5" y="-248" font-family="Arial" font-size="10.00" fill="#0d3c80">1×</text>
</g>
<!-- 11 -->
<g id="node12" class="node">
<title>11</title>
<g id="a_node12"><a xlink:title="/home/valeria/miniconda3/envs/pyntacle_env/lib/python3.10/site&#45;packages/igraph/datatypes.py">
<polygon fill="#0d1a77" stroke="#0d1a77" points="708,-144 589,-144 589,-92 708,-92 708,-144"/>
<text text-anchor="middle" x="648.5" y="-132" font-family="Arial" font-size="10.00" fill="#ffffff">datatypes:73:_set_data</text>
<text text-anchor="middle" x="648.5" y="-121" font-family="Arial" font-size="10.00" fill="#ffffff">3.06%</text>
<text text-anchor="middle" x="648.5" y="-110" font-family="Arial" font-size="10.00" fill="#ffffff">(0.05%)</text>
<text text-anchor="middle" x="648.5" y="-99" font-family="Arial" font-size="10.00" fill="#ffffff">1×</text>
</a>
</g>
</g>
<!-- 37 -->
<g id="node13" class="node">
<title>37</title>
<g id="a_node13"><a xlink:title="/home/valeria/miniconda3/envs/pyntacle_env/lib/python3.10/site&#45;packages/igraph/datatypes.py">
<polygon fill="#0d1976" stroke="#0d1976" points="711,-52 586,-52 586,0 711,0 711,-52"/>
<text text-anchor="middle" x="648.5" y="-40" font-family="Arial" font-size="10.00" fill="#ffffff">datatypes:76:&lt;listcomp&gt;</text>
<text text-anchor="middle" x="648.5" y="-29" font-family="Arial" font-size="10.00" fill="#ffffff">2.92%</text>
<text text-anchor="middle" x="648.5" y="-18" font-family="Arial" font-size="10.00" fill="#ffffff">(2.92%)</text>
<text text-anchor="middle" x="648.5" y="-7" font-family="Arial" font-size="10.00" fill="#ffffff">1×</text>
</a>
</g>
</g>
<!-- 11&#45;&gt;37 -->
<g id="edge9" class="edge">
<title>11&#45;&gt;37</title>
<path fill="none" stroke="#0d1976" stroke-width="0.5" d="M648.5,-91.93C648.5,-80.71 648.5,-67.42 648.5,-55.8"/>
<polygon fill="#0d1976" stroke="#0d1976" stroke-width="0.5" points="649.73,-55.75 648.5,-52.25 647.28,-55.75 649.73,-55.75"/>
<text text-anchor="middle" x="662.5" y="-75" font-family="Arial" font-size="10.00" fill="#0d1976">2.92%</text>
<text text-anchor="middle" x="662.5" y="-64" font-family="Arial" font-size="10.00" fill="#0d1976">1×</text>
</g>
<!-- 15&#45;&gt;6 -->
<g id="edge10" class="edge">
<title>15&#45;&gt;6</title>
<path fill="none" stroke="#7fcb07" stroke-width="2.61" d="M486.5,-459.93C486.5,-450.16 486.5,-438.82 486.5,-428.38"/>
<polygon fill="#7fcb07" stroke="#7fcb07" stroke-width="2.61" points="489.34,-428.35 486.5,-420.25 483.67,-428.35 489.34,-428.35"/>
<text text-anchor="middle" x="503.5" y="-443" font-family="Arial" font-size="10.00" fill="#7fcb07">65.22%</text>
<text text-anchor="middle" x="503.5" y="-432" font-family="Arial" font-size="10.00" fill="#7fcb07">1×</text>
</g>
<!-- 34&#45;&gt;5 -->
<g id="edge13" class="edge">
<title>34&#45;&gt;5</title>
<path fill="none" stroke="#0d1e78" stroke-width="0.5" d="M800.5,-459.93C800.5,-448.71 800.5,-435.42 800.5,-423.8"/>
<polygon fill="#0d1e78" stroke="#0d1e78" stroke-width="0.5" points="801.73,-423.75 800.5,-420.25 799.28,-423.75 801.73,-423.75"/>
<text text-anchor="middle" x="814.5" y="-443" font-family="Arial" font-size="10.00" fill="#0d1e78">4.07%</text>
<text text-anchor="middle" x="814.5" y="-432" font-family="Arial" font-size="10.00" fill="#0d1e78">1×</text>
</g>
<!-- 38&#45;&gt;11 -->
<g id="edge16" class="edge">
<title>38&#45;&gt;11</title>
<path fill="none" stroke="#0d1a77" stroke-width="0.5" d="M648.5,-183.93C648.5,-172.71 648.5,-159.42 648.5,-147.8"/>
<polygon fill="#0d1a77" stroke="#0d1a77" stroke-width="0.5" points="649.73,-147.75 648.5,-144.25 647.28,-147.75 649.73,-147.75"/>
<text text-anchor="middle" x="662.5" y="-167" font-family="Arial" font-size="10.00" fill="#0d1a77">3.06%</text>
<text text-anchor="middle" x="662.5" y="-156" font-family="Arial" font-size="10.00" fill="#0d1a77">1×</text>
</g>
</g>
</svg>
